<svg xmlns="http://www.w3.org/2000/svg" width="1600" height="900" viewBox="0 0 1600 900"><defs><marker id="a" markerWidth="10" markerHeight="8" refX="9" refY="4" orient="auto"><path d="M0 0L10 4L0 8Z" fill="#222"/></marker><style>.h{font:700 43px Arial;fill:#111}.s{font:400 19px Arial;fill:#555}.gh{font:700 21px Arial;fill:#111}.t{font:700 18px Arial;fill:#111}.d{font:400 16px Arial;fill:#555}.g{fill:#fff;stroke:#222;stroke-width:2}.band{fill:#f2f2f2;stroke:#222;stroke-width:1.5}.b{fill:#eee;stroke:#222;stroke-width:1.5}.m{fill:#fff;stroke:#666;stroke-width:1.3}.f{stroke:#222;stroke-width:2.2;fill:none;marker-end:url(#a)}</style></defs><rect width="1600" height="900" fill="#fff"/><text x="800" y="72" text-anchor="middle" class="h">End-to-End Predictive Maintenance Workflow</text><text x="800" y="105" text-anchor="middle" class="s">A single configurable path from heterogeneous input to maintenance action</text><rect x="565" y="127" width="18" height="18" class="b"/><text x="595" y="142" class="d">Light-gray inner boxes: execution environment or user-facing output</text>
<g><rect x="45" y="180" width="230" height="520" class="g"/><rect x="45" y="180" width="230" height="52" class="band"/><text x="160" y="214" text-anchor="middle" class="gh">1 · Input</text><text x="160" y="278" text-anchor="middle" class="t">Industrial data</text><text x="160" y="320" text-anchor="middle" class="d">Image</text><text x="160" y="355" text-anchor="middle" class="d">Sensor vector</text><text x="160" y="390" text-anchor="middle" class="d">Audio + caption</text><text x="160" y="425" text-anchor="middle" class="d">Raster + prompt</text><text x="160" y="650" text-anchor="middle" class="d">Use-case configuration</text>
<rect x="355" y="180" width="230" height="520" class="g"/><rect x="355" y="180" width="230" height="52" class="band"/><text x="470" y="214" text-anchor="middle" class="gh">2 · Preparation</text><rect x="380" y="275" width="180" height="70" class="m"/><text x="470" y="305" text-anchor="middle" class="t">Dispatcher</text><text x="470" y="329" text-anchor="middle" class="d">select handler</text><rect x="380" y="405" width="180" height="85" class="m"/><text x="470" y="440" text-anchor="middle" class="t">Preprocessing</text><text x="470" y="464" text-anchor="middle" class="d">modality-specific</text>
<rect x="665" y="180" width="230" height="520" class="g"/><rect x="665" y="180" width="230" height="52" class="band"/><text x="780" y="214" text-anchor="middle" class="gh">3 · Inference</text><text x="780" y="285" text-anchor="middle" class="t">OpenVINO Runtime</text><rect x="690" y="330" width="180" height="58" class="m"/><text x="780" y="365" text-anchor="middle" class="d">Model handler</text><rect x="690" y="425" width="180" height="58" class="m"/><text x="780" y="460" text-anchor="middle" class="d">Postprocessing</text><rect x="690" y="580" width="180" height="65" class="b"/><text x="780" y="608" text-anchor="middle" class="t">Intel device</text><text x="780" y="631" text-anchor="middle" class="d">CPU · GPU · NPU</text>
<rect x="975" y="180" width="230" height="520" class="g"/><rect x="975" y="180" width="230" height="52" class="band"/><text x="1090" y="214" text-anchor="middle" class="gh">4 · Evidence</text><text x="1090" y="290" text-anchor="middle" class="t">Structured outputs</text><rect x="1000" y="330" width="180" height="58" class="m"/><text x="1090" y="365" text-anchor="middle" class="d">JSONL</text><rect x="1000" y="425" width="180" height="58" class="m"/><text x="1090" y="460" text-anchor="middle" class="d">SQLite</text><text x="1090" y="540" text-anchor="middle" class="d">prediction · confidence</text><text x="1090" y="570" text-anchor="middle" class="d">sensor · metadata</text>
<rect x="1285" y="180" width="270" height="520" class="g"/><rect x="1285" y="180" width="270" height="52" class="band"/><text x="1420" y="214" text-anchor="middle" class="gh">5 · Agentic Layer</text><rect x="1330" y="270" width="180" height="62" class="m"/><text x="1420" y="307" text-anchor="middle" class="t">Policy · Analysis</text><rect x="1330" y="365" width="180" height="62" class="m"/><text x="1420" y="402" text-anchor="middle" class="t">Evidence Agent</text><rect x="1330" y="500" width="180" height="95" class="b"/><text x="1420" y="535" text-anchor="middle" class="t">User Outputs</text><text x="1420" y="566" text-anchor="middle" class="d">chat · reports · tickets</text></g>
<path d="M275 440h80" class="f"/><path d="M585 440h80" class="f"/><path d="M895 440h80" class="f"/><path d="M1205 440h80" class="f"/><rect x="355" y="765" width="850" height="58" class="band"/><text x="780" y="800" text-anchor="middle" class="t">Reusable runner, output writers, visualization, and configurable schemas</text></svg>
